<svg width="156" height="156" fill="none"
    xmlns="http://www.w3.org/2000/svg">
    <style>path{fill:#2d3232}@media (prefers-color-scheme:dark){path{fill:#fafafa}}</style>
    <g clip-path="url(#clip0)">
        <path d="M150.75 102.59l-16.87-9.74a4.8994 4.8994 0 01-1.79-1.7877 4.8957 4.8957 0 01-.66-2.4423V69.14a11.3555 11.3555 0 00-1.524-5.6754 11.3586 11.3586 0 00-4.156-4.1546l-16.87-9.74a4.9205 4.9205 0 01-1.784-1.7953 4.9241 4.9241 0 01-.656-2.4447V25.85a11.3893 11.3893 0 00-5.68-9.85L78.21 3 55.66 16A11.3908 11.3908 0 0050 25.85v19.48a4.9196 4.9196 0 01-2.44 4.24l-16.89 9.74A11.3796 11.3796 0 0025 69.14v19.48a4.8898 4.8898 0 01-2.44 4.23l-16.88 9.74a11.4059 11.4059 0 00-4.1519 4.163A11.409 11.409 0 000 112.43v26l22.55 13a11.3415 11.3415 0 0011.35 0l16.87-9.74a4.9123 4.9123 0 012.445-.652c.858 0 1.701.225 2.445.652l16.87 9.74a11.3704 11.3704 0 005.68 1.52c1.9939 0 3.9527-.524 5.68-1.52l16.87-9.74a4.9123 4.9123 0 012.445-.652c.858 0 1.701.225 2.445.652l16.87 9.74c1.725.997 3.682 1.522 5.675 1.522 1.993 0 3.95-.525 5.675-1.522l22.55-13v-26c-.003-1.993-.528-3.95-1.522-5.676a11.4002 11.4002 0 00-4.148-4.164zM100 25.85v19.48a11.3822 11.3822 0 001.528 5.6731 11.3903 11.3903 0 004.152 4.1569l16.87 9.74a4.9068 4.9068 0 011.791 1.7928c.43.744.657 1.5879.659 2.4472v19.48a11.3781 11.3781 0 005.67 9.83l16.87 9.74a4.907 4.907 0 011.793 1.792c.43.744.656 1.588.657 2.448V131L81.44 91.44V12.33l16.09 9.29a4.89 4.89 0 012.47 4.23zM8.91 108.19l16.87-9.74a11.3895 11.3895 0 005.68-9.83V69.14a4.9004 4.9004 0 012.44-4.24l16.87-9.74a11.3895 11.3895 0 005.68-9.83V25.85a4.9104 4.9104 0 012.44-4.23L75 12.33v79.11L6.47 131v-18.57a4.9015 4.9015 0 012.44-4.24zm121.73 37.7c-.744.427-1.587.652-2.445.652-.858 0-1.701-.225-2.445-.652l-16.87-9.74a11.3402 11.3402 0 00-11.35 0l-16.87 9.74c-.744.427-1.587.652-2.445.652-.858 0-1.701-.225-2.445-.652l-16.87-9.74a11.3604 11.3604 0 00-11.36 0l-16.87 9.74c-.744.427-1.587.652-2.445.652-.858 0-1.701-.225-2.445-.652L9.7 136.6 78.21 97l68.51 39.56-16.08 9.33z" fill="#000"/>
    </g>
    <defs>
        <clipPath id="clip0">
            <path fill="#fff" d="M0 0h156v156H0z"/>
        </clipPath>
    </defs>
</svg>
